HIERARCHY
ROOT Hips
{
	OFFSET -0.001795 -0.223333 0.028219
	CHANNELS 6 Xposition Yposition Zposition Zrotation Yrotation Xrotation 
	JOINT LeftUpLeg
	{
		OFFSET 0.069520 -0.091406 -0.006815
		CHANNELS 3 Zrotation Yrotation Xrotation
		JOINT LeftLeg
		{
			OFFSET 0.034277 -0.375199 -0.004496
			CHANNELS 3 Zrotation Yrotation Xrotation
			JOINT LeftFoot
			{
				OFFSET -0.013596 -0.397961 -0.043693
				CHANNELS 3 Zrotation Yrotation Xrotation
				JOINT LeftToe
				{
					OFFSET 0.026358 -0.055791 0.119288
					CHANNELS 3 Zrotation Yrotation Xrotation
					End Site
					{
						OFFSET 0.000000 0.000000 0.000000
					}
				}
			}
		}
	}
	JOINT RightUpLeg
	{
		OFFSET -0.067670 -0.090522 -0.004320
		CHANNELS 3 Zrotation Yrotation Xrotation
		JOINT RightLeg
		{
			OFFSET -0.038290 -0.382569 -0.008850
			CHANNELS 3 Zrotation Yrotation Xrotation
			JOINT RightFoot
			{
				OFFSET 0.015774 -0.398415 -0.042312
				CHANNELS 3 Zrotation Yrotation Xrotation
				JOINT RightToe
				{
					OFFSET -0.025372 -0.048144 0.123348
					CHANNELS 3 Zrotation Yrotation Xrotation
					End Site
					{
						OFFSET 0.000000 0.000000 0.000000
					}
				}
			}
		}
	}
	JOINT Spine
	{
		OFFSET -0.002533 0.108963 -0.026696
		CHANNELS 3 Zrotation Yrotation Xrotation
		JOINT Spine1
		{
			OFFSET 0.005487 0.135180 0.001092
			CHANNELS 3 Zrotation Yrotation Xrotation
			JOINT Spine2
			{
				OFFSET 0.001457 0.052922 0.025425
				CHANNELS 3 Zrotation Yrotation Xrotation
				JOINT Neck
				{
					OFFSET -0.002778 0.213870 -0.042857
					CHANNELS 3 Zrotation Yrotation Xrotation
					JOINT Head
					{
						OFFSET 0.005152 0.064970 0.051349
						CHANNELS 3 Zrotation Yrotation Xrotation
						End Site
						{
							OFFSET 0.000000 0.000000 0.000000
						}
					}
				}
				JOINT LeftShoulder
				{
					OFFSET 0.078845 0.121749 -0.034090
					CHANNELS 3 Zrotation Yrotation Xrotation
					JOINT LeftArm
					{
						OFFSET 0.090977 0.030469 -0.008868
						CHANNELS 3 Zrotation Yrotation Xrotation
						JOINT LeftForeArm
						{
							OFFSET 0.259612 -0.012772 -0.027456
							CHANNELS 3 Zrotation Yrotation Xrotation
							JOINT LeftHand
							{
								OFFSET 0.249234 0.008986 -0.001171
								CHANNELS 3 Zrotation Yrotation Xrotation
								End Site
								{
									OFFSET 0.000000 0.000000 0.000000
								}
							}
						}
					}
				}
				JOINT RightShoulder
				{
					OFFSET -0.081759 0.118833 -0.038615
					CHANNELS 3 Zrotation Yrotation Xrotation
					JOINT RightArm
					{
						OFFSET -0.096012 0.032551 -0.009143
						CHANNELS 3 Zrotation Yrotation Xrotation
						JOINT RightForeArm
						{
							OFFSET -0.253742 -0.013329 -0.021401
							CHANNELS 3 Zrotation Yrotation Xrotation
							JOINT RightHand
							{
								OFFSET -0.255298 0.007772 -0.005559
								CHANNELS 3 Zrotation Yrotation Xrotation
								End Site
								{
									OFFSET 0.000000 0.000000 0.000000
								}
							}
						}
					}
				}
			}
		}
	}
}
MOTION
Frames: 10
Frame Time: 0.050000
3.747058 0.922947 0.509413 4.605632 59.986605 -3.819947 4.800788 -2.586476 -18.426695 -18.444908 -5.788388 42.936830 15.781472 27.582414 10.451850 0.000000 0.000000 0.000000 4.748258 0.653841 -4.914834 -1.005333 -5.375642 25.342837 -1.931085 -7.682891 -2.109292 0.000000 0.000000 0.000000 -5.132387 -2.377560 22.196380 5.513885 1.023271 -28.540110 6.443915 13.293895 27.266306 6.345936 2.695063 -12.040345 0.000000 0.000000 0.000000 -30.667344 -8.258281 -21.642710 -29.279094 26.334389 -5.965955 -44.306287 -45.614409 16.801343 0.000000 0.000000 0.000000 27.845221 -11.204200 7.309482 33.370874 5.922627 -7.096047 12.265736 56.750724 14.037271 0.000000 0.000000 0.000000 
3.819863 0.932318 0.541196 3.655703 55.819092 -3.318544 6.039380 -2.955060 -20.595072 -8.675545 -3.222100 26.472270 8.602677 19.832260 11.444368 0.000000 0.000000 0.000000 4.255200 -0.030176 1.081720 -1.699985 -3.472337 22.359381 0.125767 -2.364451 -2.926642 0.000000 0.000000 0.000000 -5.338400 -1.852597 20.558646 5.549694 0.877373 -28.583481 7.157925 15.817554 27.532249 7.791961 0.999556 -10.870991 0.000000 0.000000 0.000000 -29.324516 -5.658161 -21.909051 -28.928594 29.266000 -7.005383 -44.737412 -42.222325 15.258965 0.000000 0.000000 0.000000 27.120843 -9.984949 7.847439 33.702837 8.281209 -6.410155 17.254158 61.653670 19.329870 0.000000 0.000000 0.000000 
3.896209 0.939066 0.574679 3.055799 52.401137 -2.237736 6.407396 -2.893604 -20.843111 -3.507374 -1.152036 13.304626 0.905520 13.372810 16.621235 0.000000 0.000000 0.000000 3.094511 -0.819634 5.383344 -3.034160 -2.297571 21.638517 0.871657 0.740846 -0.724019 0.000000 0.000000 0.000000 -5.571961 -1.284309 18.085910 5.555525 0.771618 -28.298308 7.497783 16.800244 27.407059 8.106219 0.140627 -9.922599 0.000000 0.000000 0.000000 -28.045721 -3.631376 -21.529303 -29.084135 31.467975 -8.037379 -44.972755 -39.487536 13.944740 0.000000 0.000000 0.000000 26.042376 -8.703413 8.036996 34.571692 8.519962 -6.103745 28.878250 65.688898 29.639719 0.000000 0.000000 0.000000 
3.975103 0.940064 0.609460 3.175736 50.058363 -1.054016 5.535803 -2.703233 -20.139946 -1.964956 -0.548289 7.818928 -2.447403 11.828197 21.616260 0.000000 0.000000 0.000000 1.785999 -1.161612 7.057984 -5.609118 -2.118791 25.995663 1.214585 2.741428 4.826482 0.000000 0.000000 0.000000 -6.328252 -0.887035 16.128948 5.646640 0.675294 -27.926724 7.230347 16.010040 26.836138 7.816510 0.208525 -10.179125 0.000000 0.000000 0.000000 -27.550592 -2.677267 -20.627856 -29.346587 32.371525 -8.653764 -43.519951 -37.404479 12.599705 0.000000 0.000000 0.000000 25.482276 -7.703715 7.952277 35.617095 7.690503 -6.169196 41.016846 65.842419 38.816983 0.000000 0.000000 0.000000 
4.053490 0.934691 0.644291 4.066519 49.318557 -0.169270 3.449362 -2.490575 -18.796836 -2.783221 -0.697342 9.773845 -0.580242 13.591036 21.209429 0.000000 0.000000 0.000000 0.764651 -0.839568 5.254144 -10.120671 -3.082423 36.504003 2.267589 4.598400 12.808751 0.000000 0.000000 0.000000 -7.558068 -0.778722 16.030721 5.808354 0.586068 -28.231920 6.261569 13.984307 26.239141 7.617036 0.530891 -11.353440 0.000000 0.000000 0.000000 -27.667703 -3.473324 -19.010803 -29.980595 31.021621 -8.670873 -40.241788 -36.999882 11.572482 0.000000 0.000000 0.000000 26.484789 -7.658766 7.754640 36.257533 6.456055 -6.651434 43.830145 62.285299 37.873289 0.000000 0.000000 0.000000 
4.127760 0.926333 0.677852 5.495553 50.226268 0.386734 0.620316 -2.153392 -16.507872 -4.549225 -1.316550 15.326938 4.149538 16.082266 15.109541 0.000000 0.000000 0.000000 -0.014165 -0.175492 -0.020530 -16.391826 -4.618286 50.483240 4.088527 5.973993 17.416909 0.000000 0.000000 0.000000 -8.805887 -0.950587 17.945091 5.923377 0.538251 -29.161376 4.879011 11.113072 25.952480 7.012911 1.065785 -12.431751 0.000000 0.000000 0.000000 -28.208492 -5.653892 -16.839505 -30.817567 27.165491 -7.997702 -36.271537 -38.557960 11.098036 0.000000 0.000000 0.000000 28.496379 -8.162017 7.488987 36.399968 4.746777 -7.407808 38.922467 57.093379 30.071515 0.000000 0.000000 0.000000 
4.196439 0.920634 0.710479 6.393984 51.390665 0.091479 -1.576485 -1.421294 -12.423181 -5.570020 -1.979629 19.625427 7.828821 16.934409 8.281191 0.000000 0.000000 0.000000 -0.481659 0.156165 -7.228890 -20.992833 -5.387334 61.380648 4.350812 5.927206 14.371548 0.000000 0.000000 0.000000 -9.138689 -1.374141 20.903082 5.997061 0.504744 -30.147677 3.505228 8.106453 25.847693 5.845201 1.681481 -12.711119 0.000000 0.000000 0.000000 -28.821060 -8.079631 -14.380114 -31.634781 21.444019 -6.810764 -32.870049 -41.738655 11.144740 0.000000 0.000000 0.000000 29.695100 -8.396960 6.887240 36.464371 1.849518 -8.228817 33.154626 52.490796 23.126587 0.000000 0.000000 0.000000 
4.260641 0.921958 0.744306 6.189199 52.176334 -0.903901 -2.182977 -0.521598 -6.770329 -5.711891 -2.172204 20.680571 8.239528 14.522827 3.520556 0.000000 0.000000 0.000000 -0.261721 -0.036939 -14.470542 -18.943302 -7.073313 63.589569 1.102005 0.956458 7.959381 0.000000 0.000000 0.000000 -8.231609 -1.936852 23.445053 6.112852 0.448594 -30.989732 2.327425 5.243276 25.695552 4.480419 2.251586 -12.378900 0.000000 0.000000 0.000000 -29.094465 -10.074753 -11.940035 -32.311529 15.232736 -5.479905 -30.910598 -46.443820 11.864070 0.000000 0.000000 0.000000 29.189449 -8.590787 5.635927 36.511791 -2.375433 -9.009357 30.258107 49.298538 19.590289 0.000000 0.000000 0.000000 
4.322281 0.931149 0.781513 5.625803 52.628740 -1.587501 -1.412618 -0.012432 -0.712119 -5.984897 -1.914903 19.727915 5.881710 10.264664 2.364820 0.000000 0.000000 0.000000 0.698112 -0.357953 -19.999879 -9.592547 -9.604466 54.184742 -4.195917 -9.796499 3.097963 0.000000 0.000000 0.000000 -6.317369 -2.380878 24.279574 6.082160 0.433048 -31.481147 1.144405 2.651539 25.680767 3.651679 2.500928 -12.087654 0.000000 0.000000 0.000000 -28.977825 -11.604401 -9.885504 -32.763760 9.728545 -4.271800 -31.581385 -52.939308 14.061602 0.000000 0.000000 0.000000 27.666712 -9.404868 3.830540 36.447805 -6.471168 -9.559268 29.153040 47.080027 17.985693 0.000000 0.000000 0.000000 
4.382305 0.943548 0.823279 5.957996 52.648873 -1.174199 -0.042000 -0.071679 4.019964 -7.390984 -1.724552 20.045671 2.582247 7.567952 5.309804 0.000000 0.000000 0.000000 1.923677 -0.318622 -22.255767 0.256497 -7.909816 35.826069 -6.143250 -13.763679 3.419401 0.000000 0.000000 0.000000 -4.162180 -2.516751 23.447712 5.408461 0.564174 -31.532005 0.151875 0.638986 25.805537 3.399413 2.361418 -11.666232 0.000000 0.000000 0.000000 -28.529175 -12.818021 -8.260398 -33.013566 5.500495 -3.342175 -36.014468 -61.138063 19.144048 0.000000 0.000000 0.000000 25.941265 -10.505609 2.076885 36.723111 -9.977973 -10.004709 27.963002 45.558693 16.842188 0.000000 0.000000 0.000000 
